<svg width="77" height="31" viewBox="0 0 77 31" fill="none" xmlns="http://www.w3.org/2000/svg">
<path fill-rule="evenodd" clip-rule="evenodd" d="M18.9061 3.39924C16.5935 4.84732 14.7327 6.91984 13.5362 9.38015C13.4434 9.59113 13.4092 9.90515 13.5117 9.87076C27.0295 5.45502 25.5015 26.4888 12.7453 23.751C12.4377 27.1168 12.013 28.6574 11.0366 30.7524C10.9683 30.9045 10.7779 31.0321 10.6558 30.9928C10.5901 30.9733 10.534 30.9297 10.4988 30.8707C10.4635 30.8116 10.4516 30.7414 10.4654 30.6739C10.8755 28.4219 11.2465 26.1698 9.51838 23.5891C8.25397 21.7197 3.41609 22.4017 1.76603 20.5079C-2.79359 15.2384 2.11753 6.65217 9.18641 10.4547C8.44928 7.93769 7.80976 4.01253 9.2743 0.31311C9.30355 0.227196 9.34829 0.147384 9.40607 0.0776026C9.57205 -0.103934 9.96749 0.0776026 10.1969 0.170825C10.7388 0.342548 11.0903 0.710529 11.6273 0.887158C11.9593 1.24533 11.3686 1.58387 11.4662 2.18245C11.9056 1.60349 12.1888 0.857717 12.5939 0.219888C13.4344 0.467736 14.1715 0.98455 14.6931 1.69181C14.2879 2.67309 13.7558 3.56115 13.3994 4.60621C14.1805 3.69852 15.9135 2.05488 17.5734 1.37289C18.2129 1.64765 18.9257 3.12938 18.9061 3.39924Z" fill="#9FD2BE"/>
<path d="M63.7043 23.6815C63.8125 23.3927 63.8764 23.1337 63.9895 22.8249C64.0583 22.6208 64.1124 22.4116 64.1715 22.2074C64.2845 21.809 64.3878 21.4106 64.5156 21.0171C64.6435 20.6238 65.1843 18.8309 65.2384 18.6068C65.2925 18.3827 65.3663 18.1088 65.3958 18.0341C65.5826 17.5012 65.5924 17.3518 65.7596 16.7393C65.8481 16.4256 66.0399 15.6935 66.0596 15.6038C66.1038 15.4097 66.3104 14.6975 66.448 14.334C66.5267 14.1248 66.5955 13.9355 66.6791 13.7313C66.7439 13.5607 66.8195 13.3943 66.9053 13.2334C67.0135 13.0341 67.0184 12.9993 67.3724 13.0043C67.5449 12.994 67.718 13.0023 67.8887 13.0292C67.9822 13.0989 67.992 13.318 68.0264 13.4973C68.0903 13.821 68.1198 14.1447 68.1788 14.4684C68.2378 14.7921 68.228 14.9664 68.2673 15.3698C68.2673 15.5939 68.3165 15.8678 68.3361 16.057C68.3559 16.2463 68.3361 16.3459 68.3361 16.4654C68.3463 16.6312 68.3463 16.7976 68.3361 16.9634C68.3361 17.1327 68.3755 17.327 68.3804 17.5012C68.4149 18.1387 68.4296 18.4076 68.4886 18.8558C68.5181 19.0899 68.5231 19.3289 68.5378 19.568C68.5624 19.9614 68.5378 20.2204 68.5869 20.6138C68.6361 21.0072 68.5869 21.2861 68.641 21.7144C68.7042 22.2965 68.7354 22.8817 68.7344 23.4673C68.7344 24.1646 68.8132 24.6874 68.8328 25.3847C68.8328 25.7631 68.8672 26.1466 68.9016 26.5251C68.9016 26.7044 68.9016 26.8836 68.9557 27.3468C68.9852 27.6804 69 27.8 69 27.9146C69 28.0291 68.7541 27.9693 68.5082 27.9693H67.874H67.7904C67.7019 27.9345 67.7068 27.8349 67.692 27.6705C67.6625 27.1725 67.6527 26.8737 67.633 26.3707C67.6133 25.8677 67.5839 25.1407 67.574 24.6675C67.5642 24.1944 67.5249 23.9803 67.5101 23.4375C67.5101 23.2731 67.4806 22.8149 67.4708 22.4414C67.4708 21.5898 67.4314 21.6247 67.4216 21.1566C67.4216 20.7682 67.3478 20.6088 67.3232 19.8169C67.3232 19.4037 67.2643 19.0401 67.2397 18.6367C67.2053 18.0042 67.1856 17.9295 67.1708 17.6407V17.2373C67.1708 16.9983 67.1708 16.9534 67.1463 16.7393C67.1553 16.6549 67.1553 16.5698 67.1463 16.4853C67.1463 16.3757 67.1463 16.3558 67.102 16.3459C67.0577 16.3359 67.0381 16.5302 67.0184 16.6098C66.8807 17.2025 66.8217 17.3867 66.6201 18.1038C66.5119 18.5122 66.4136 18.7662 66.2808 19.2492C66.1481 19.7323 66.0743 19.9465 65.9317 20.3797C65.8777 20.5441 65.6662 21.2562 65.617 21.4206C65.4794 21.8737 65.4646 21.9932 65.3171 22.4464L65.2237 22.7652C65.1647 22.9445 64.9237 23.8259 64.6877 24.543C64.5943 24.8418 64.5058 25.1058 64.3927 25.4046C64.3288 25.5689 64.0977 25.6486 63.901 25.6785C63.7049 25.7208 63.5022 25.7208 63.306 25.6785C63.2247 25.6491 63.1518 25.5996 63.0943 25.5343C63.0367 25.469 62.9962 25.3902 62.9766 25.305C62.9077 25.051 62.7996 24.8568 62.7307 24.6028C62.6422 24.2642 62.5537 24.1895 62.362 23.552C62.3275 23.4424 62.18 22.9693 62.1309 22.82C62.0817 22.6705 61.9932 22.4215 61.9538 22.3219C61.8752 22.1376 61.6687 21.5052 61.4032 20.7632C61.2999 20.4096 61.1622 20.0112 61.0245 19.6676C60.8868 19.324 60.8032 19.0949 60.6902 18.811L60.5181 18.3329C60.4148 18.0341 60.3214 17.8349 60.2034 17.5212C60.1493 17.3767 59.9378 16.814 59.869 16.6795C59.869 16.8688 59.8297 17.2971 59.8248 17.4315C59.7903 17.8698 59.7756 18.3031 59.7412 18.7413C59.7412 18.801 59.7412 18.8857 59.7412 18.9454C59.7412 19.2841 59.6773 19.5978 59.6625 20.0261C59.6625 20.3647 59.6182 20.7682 59.5985 21.1068C59.5789 21.4454 59.5986 21.6496 59.574 21.9385C59.574 22.4863 59.4855 23.0291 59.4855 23.4325C59.4855 24.3587 59.4117 24.7273 59.3675 25.5191C59.3233 26.3109 59.3085 26.6994 59.2495 27.5709C59.2604 27.6967 59.2348 27.8231 59.1757 27.9345C59.1216 28.0241 58.8758 27.9942 58.7627 27.9942C58.5198 28.007 58.2764 27.9986 58.035 27.9693C57.9563 27.9146 58.035 27.8249 58.035 27.6058C58.035 27.1825 58.1234 26.5649 58.1431 26.1864C58.1726 25.6436 58.2267 25.1008 58.2562 24.6426C58.2857 24.1845 58.3152 23.9902 58.3251 23.5919C58.3251 23.4972 58.3251 23.2432 58.3251 23.1486C58.3251 22.9145 58.3595 22.6506 58.3742 22.4265C58.3742 22.068 58.4087 21.9285 58.4284 21.3757C58.4284 21.1118 58.4627 20.8777 58.4677 20.5938C58.5217 19.9414 58.5316 19.4484 58.5562 18.8509C58.5562 18.5769 58.6004 18.2731 58.6201 18.0042C58.6496 17.6308 58.6496 17.312 58.6742 16.9435C58.7036 16.4455 58.7184 16.1965 58.7578 15.4943C58.7922 15.1009 58.8315 14.7473 58.861 14.4983C58.9151 14.0351 58.9544 13.8609 58.984 13.5571C59.0134 13.2533 59.0725 13.1686 59.2003 13.0939C59.3268 13.0311 59.4686 13.0069 59.6084 13.0242C59.6911 13.0191 59.7741 13.0275 59.8543 13.0491C60.0558 13.1188 60.1149 13.4724 60.1886 13.6467C60.2624 13.821 60.2525 13.8808 60.3411 14.1447C60.3853 14.2692 60.4295 14.4435 60.4984 14.6427C60.5673 14.8419 60.6312 15.0212 60.6951 15.1905C60.759 15.3598 60.8328 15.6885 60.9163 15.9176C60.9999 16.1467 61.0196 16.2313 61.1081 16.4554C61.1967 16.6795 61.3884 17.2323 61.4032 17.2821C61.4867 17.5012 61.59 17.7801 61.6785 17.9793C62.0128 18.8658 62.3275 19.7124 62.362 19.7921C62.4504 20.0162 62.4898 20.2054 62.5734 20.4295C62.6569 20.6536 62.7553 20.9275 62.8537 21.2213C63.0258 21.6795 63.1438 22.0829 63.3453 22.6705C63.4339 22.8996 63.606 23.4175 63.7043 23.6815Z" fill="#4A4640"/>
<path d="M38.6959 13.9541C38.6959 14.039 38.6959 14.1288 38.6162 14.1438L38.1326 14.1688C37.5688 14.1633 37.0089 14.2515 36.4824 14.4284C36.2051 14.5134 35.9411 14.6292 35.6972 14.7728C35.4696 14.9244 35.2863 15.1211 35.1623 15.347C35.0052 15.5874 34.8883 15.8463 34.8152 16.1159C34.684 16.558 34.5945 17.0089 34.5477 17.4639C34.5477 17.7535 34.4453 18.2128 34.4225 18.5024C34.3827 19.0516 34.3372 19.7405 34.3315 20.2947C34.3258 20.8489 34.3315 21.3881 34.3315 21.9373C34.3315 22.4116 34.377 22.8011 34.4169 23.2753C34.4169 23.525 34.5079 24.1141 34.5649 24.5484C34.6024 24.9827 34.7502 25.404 34.9973 25.7817C35.137 25.9707 35.3098 26.1392 35.5094 26.2809C35.7127 26.4623 35.9684 26.5917 36.2491 26.6553C36.7287 26.7409 37.2216 26.7527 37.7058 26.6903C37.9536 26.6619 38.1988 26.6186 38.4398 26.5605C38.6389 26.5106 38.6959 26.7652 38.7756 26.93C38.8552 27.0947 38.8324 27.1097 38.8723 27.2145C38.9174 27.3112 38.9517 27.4116 38.9747 27.5141C38.9747 27.574 39.0316 27.6139 38.9747 27.6439C38.5896 27.8067 38.176 27.9113 37.7513 27.9534C37.2187 28.0155 36.6792 28.0155 36.1467 27.9534C35.9213 27.9275 35.6987 27.8858 35.481 27.8286C34.8185 27.6136 34.2548 27.2136 33.8763 26.6903C33.6146 26.3131 33.4225 25.9019 33.3073 25.4721C33.1794 24.8892 33.1052 24.2981 33.0854 23.7047C33.0854 23.525 33.0854 23.2054 33.0512 23.0357C33.0512 22.6962 33.0114 22.5364 33 22.2718C33 22.1271 33 22.0072 33 21.8624C33 21.7176 33 21.5279 33 21.3632C33 21.2783 33 20.5893 33 20.2298C33 19.9552 33.0285 19.6706 33 19.3861C33 19.2113 33 19.0466 33 18.8868C33 18.5973 33.0626 18.1279 33.0967 17.8384C33.1309 17.5488 33.1537 17.2093 33.1992 16.8398C33.2447 16.4703 33.3528 15.9362 33.4211 15.6715C33.4835 15.4604 33.5634 15.2534 33.6601 15.0525C33.7511 14.8727 33.8706 14.6979 33.9788 14.5232C34.1039 14.3578 34.2407 14.1993 34.3884 14.049C34.5883 13.8314 34.836 13.6514 35.1168 13.5197C36.0899 13.1096 37.171 12.9371 38.2464 13.0204C38.4569 13.0204 38.5252 13.1452 38.5878 13.335C38.6504 13.5247 38.6561 13.7793 38.6959 13.9541Z" fill="#4A4640"/>
<path d="M45.9009 27.1798C45.9009 27.0453 45.8187 26.4527 45.7945 26.2983C45.7122 25.8003 45.6783 25.4716 45.6107 24.9637C45.5574 24.5703 45.4849 24.1918 45.4414 23.7934C45.3785 23.2157 45.2914 22.6081 45.2334 22.0305C45.1753 21.4528 45.1222 20.91 45.0544 20.3473C44.9722 19.665 44.8851 18.9877 44.7884 18.3054C44.7304 17.8772 44.682 17.5037 44.6191 17.0754C44.5562 16.6471 44.4982 16.2139 44.445 15.8105C44.3918 15.4071 44.2564 14.8145 44.1983 14.3912C44.1403 13.9679 44.1064 13.5496 44.0339 13.2608C44.0339 13.196 43.9468 13.0616 43.8888 13.0516C43.5489 13.0048 43.2058 12.9898 42.8634 13.0068C42.578 13.0068 42.4958 13.0964 42.4425 13.3354C42.3893 13.5745 42.3651 13.8335 42.3071 14.192C42.2733 14.3862 42.2249 14.69 42.2007 14.8693C42.1524 15.2677 42.1185 15.4868 42.0508 15.8653C42.0508 16.0197 41.9976 16.2039 41.9686 16.3633C41.9395 16.5226 41.8911 16.7866 41.867 16.9011C41.8089 17.1651 41.6687 17.9419 41.6203 18.2955C41.5719 18.6491 41.451 19.3413 41.4413 19.406C41.4123 19.665 41.3881 19.904 41.3543 20.1779C41.3376 20.45 41.2971 20.7201 41.2333 20.9847C41.1463 21.2536 41.0447 22.0703 41.0157 22.1998C40.9625 22.4637 40.9238 22.7576 40.8706 23.0165C40.8174 23.2754 40.6916 24.0125 40.6626 24.1868C40.6094 24.5304 40.3918 25.7456 40.3337 26.0742C40.237 26.5722 40.1547 27.0104 40.0919 27.359C40.0417 27.5461 40.0108 27.738 40 27.9317C40.0629 28.0064 40.3869 27.9815 40.6336 27.9815C41.0157 27.9815 41.1173 27.9815 41.185 27.7773C41.2769 27.3789 41.3639 26.9108 41.4462 26.3431C41.4946 25.9995 41.5622 25.6808 41.6106 25.3471C41.6492 25.0795 41.7058 24.8149 41.7799 24.5553L42.5538 24.6001C43.2745 24.64 44.3676 24.64 44.3676 24.64C44.3928 24.7157 44.409 24.7943 44.416 24.874C44.416 25.0632 44.4595 25.2525 44.4788 25.4418C44.4982 25.631 44.5224 25.87 44.5514 26.0842C44.6336 26.7614 44.682 27.2295 44.7642 27.7773C44.7642 27.9567 44.8174 27.9915 44.9431 27.9965C45.0689 28.0014 45.5042 27.9965 45.5913 27.9965C45.8815 27.9965 46.0363 28.0462 45.9927 27.7724C45.9637 27.6379 45.9299 27.354 45.9009 27.1798ZM44.2708 23.4398C43.7872 23.4398 43.2116 23.4099 42.6989 23.38C42.4437 23.3809 42.1886 23.3677 41.9347 23.3402C41.9443 23.1103 41.9751 22.8818 42.0266 22.658C42.1427 21.8512 42.2587 21.2038 42.3651 20.4668C42.4813 19.645 42.6022 18.8184 42.7327 17.9768C42.8005 17.5635 42.873 17.0505 42.9456 16.6023C42.9456 16.5575 43.1149 15.9001 43.1923 15.5117C43.195 15.4849 43.2044 15.4594 43.2197 15.4376C43.2349 15.4157 43.2555 15.3983 43.2793 15.3872C43.3083 15.3872 43.347 15.3872 43.3809 15.5615C43.4389 15.9251 43.497 16.5027 43.5357 16.8712C43.5888 17.4091 43.7437 18.7387 43.7823 18.9678C43.821 19.1969 43.9274 20.168 43.9468 20.3672C44.2612 23.39 44.2466 23.0066 44.2708 23.4398Z" fill="#4A4640"/>
<path d="M32.9202 27.1939C32.9202 27.0593 32.8331 26.4661 32.809 26.3116C32.7267 25.813 32.6928 25.484 32.6252 24.9756C32.5719 24.5818 32.4994 24.203 32.4559 23.8041C32.393 23.2259 32.3059 22.6177 32.2479 22.0395C32.1899 21.4612 32.1366 20.9179 32.0689 20.3546C31.9867 19.6717 31.8996 18.9937 31.8077 18.3107C31.7449 17.882 31.6965 17.5082 31.6336 17.0795C31.5707 16.6508 31.5176 16.2171 31.4595 15.8133C31.4014 15.4095 31.2757 14.8163 31.2129 14.3926C31.15 13.9689 31.1209 13.5501 31.0532 13.2611C31.0532 13.1962 30.9613 13.0616 30.9033 13.0517C30.5635 13.0048 30.2203 12.9898 29.8779 13.0068C29.5973 13.0068 29.5103 13.0965 29.4571 13.3358C29.4039 13.575 29.3845 13.8343 29.3217 14.1932C29.2878 14.3876 29.2394 14.6917 29.2152 14.8711C29.1668 15.27 29.133 15.4893 29.0653 15.8681C29.0653 16.0227 29.0121 16.2071 28.983 16.3667C28.9541 16.5261 28.9057 16.7904 28.8815 16.905C28.8235 17.1692 28.6832 17.9469 28.6348 18.3008C28.5865 18.6547 28.4656 19.3476 28.4607 19.4124C28.4269 19.6717 28.4027 19.9109 28.3688 20.1851C28.3465 20.4529 28.3012 20.7181 28.2334 20.9777C28.1463 21.2469 28.0447 22.0644 28.0158 22.194C27.9625 22.4582 27.9238 22.7523 27.8706 23.0115C27.8174 23.2707 27.6916 24.0085 27.6627 24.183C27.6094 24.5269 27.3918 25.7432 27.3338 26.0722C27.237 26.5708 27.1548 27.0094 27.0919 27.3584C27.0417 27.5456 27.0109 27.7378 27 27.9316C27.0629 28.0064 27.3869 27.9815 27.6336 27.9815C28.0158 27.9815 28.1415 27.9815 28.185 27.7771C28.2769 27.3783 28.364 26.9097 28.4462 26.3415C28.4946 25.9975 28.5623 25.6785 28.6155 25.3445C28.6514 25.0765 28.7063 24.8116 28.7799 24.5519L29.5538 24.5967C30.2793 24.6367 31.3676 24.6366 31.3676 24.6366C31.3928 24.7124 31.4091 24.7911 31.416 24.8709C31.4401 25.0603 31.4595 25.2498 31.4789 25.4392C31.4982 25.6286 31.5223 25.8679 31.5514 26.0823C31.6385 26.7602 31.682 27.2288 31.7642 27.7771C31.7884 27.9566 31.8174 27.9915 31.9432 27.9965C32.0689 28.0014 32.5043 27.9965 32.5913 27.9965C32.8815 27.9965 33.0362 28.0463 32.9928 27.7721C32.9782 27.6525 32.9444 27.3683 32.9202 27.1939ZM31.2854 23.4502C30.8017 23.4502 30.2261 23.4203 29.7134 23.3904C29.4598 23.3914 29.2063 23.3781 28.9541 23.3505C28.9575 23.1202 28.9867 22.891 29.0412 22.6676C29.1572 21.86 29.2733 21.212 29.3797 20.4742C29.4957 19.6517 29.6167 18.8242 29.7473 17.9817C29.815 17.568 29.8875 17.0546 29.9649 16.6059C29.9649 16.561 30.1294 15.9031 30.2068 15.5142C30.2095 15.4874 30.2189 15.4618 30.2342 15.44C30.2495 15.4181 30.27 15.4007 30.2938 15.3896C30.3277 15.3896 30.3664 15.3896 30.3954 15.564C30.4535 15.928 30.5115 16.5062 30.5502 16.8751C30.6034 17.4135 30.7582 18.7444 30.7969 18.9737C30.8356 19.203 30.942 20.1751 30.9662 20.3745C31.2757 23.4003 31.2612 23.0165 31.2854 23.4502Z" fill="#4A4640"/>
<path d="M73.9531 18.9036C74.1144 18.4058 74.2229 18.142 74.3206 17.8284C74.458 17.4202 74.5021 17.2659 74.6396 16.8328C74.8009 16.3351 74.8841 16.141 74.9578 15.8373C75.0562 15.469 75.232 14.9712 75.2963 14.7323C75.394 14.3639 75.551 13.8562 75.5951 13.7367C75.6501 13.4965 75.734 13.2641 75.8454 13.0448C75.8454 13.015 75.8938 13 76.0703 13H76.9087C77.0707 13 76.9824 13.1145 76.9087 13.4978C76.8349 13.8811 76.6982 14.2445 76.487 14.9911C76.2765 15.7377 76.1832 15.9866 75.9973 16.6536C75.7521 17.4152 75.6638 17.9279 75.4287 18.6995C75.1929 19.471 75.0164 20.0534 74.8305 20.6358C74.8233 20.7552 74.8233 20.8748 74.8305 20.9942C74.8305 21.5418 74.8305 21.5418 74.8305 22.0893C74.8305 22.3581 74.8305 22.4925 74.8305 22.7563C74.8305 22.8309 74.8305 23.0998 74.8305 23.1744C74.8146 23.4446 74.8146 23.7156 74.8305 23.9858C74.8595 24.394 74.8305 24.6329 74.884 25.3298C74.9383 26.0266 74.9774 26.9426 74.9824 27.6295C74.9824 27.8883 75.041 28.0028 74.8645 27.9928H74.1788C74.05 28.0085 73.9206 27.9984 73.7962 27.963C73.7578 27.8 73.7412 27.6326 73.747 27.4652C73.7079 26.7733 73.6978 26.0864 73.6638 25.4094C73.6638 25.041 73.6638 25.0261 73.6298 24.4587C73.6298 24.1401 73.6052 23.7668 73.59 23.4631C73.59 22.8559 73.5264 22.5274 73.5119 21.92C73.5119 21.5865 73.5119 21.477 73.4678 21.1783C73.4678 21.1783 73.2768 20.6806 73.1394 20.4068C72.8795 19.8842 72.8354 19.7598 72.6492 19.3466C72.4629 18.9334 72.1884 18.4705 71.9825 18.0325L71.86 17.7388C71.7571 17.5048 71.664 17.241 71.5708 17.027C71.5071 16.8726 71.4385 16.7482 71.3503 16.579C71.2963 16.4844 71.2915 16.4147 71.2523 16.3351C71.213 16.2554 71.1101 16.0961 71.0611 15.9667C70.7963 15.3097 70.767 15.1504 70.5709 14.6825C70.3838 14.2862 70.2201 13.879 70.0808 13.463C70.0219 13.2838 69.9092 13.0896 70.1346 13.0548C70.381 13.0349 70.6285 13.0349 70.8748 13.0548C71.1444 13.0548 71.262 13.015 71.3307 13.1792C71.4777 13.5376 71.6248 13.8363 71.7865 14.2046C71.8404 14.329 72.012 14.7024 72.0561 14.8069C72.0926 14.9042 72.1352 14.9989 72.1836 15.0906C72.2147 15.1565 72.2409 15.2248 72.262 15.2947C72.3021 15.4855 72.3787 15.6665 72.4874 15.8274C72.5582 15.9522 72.6205 16.082 72.6737 16.2156C72.8649 16.6586 73.0413 17.1017 73.2471 17.5347C73.4424 18.0112 73.6783 18.4693 73.9531 18.9036Z" fill="#4A4640"/>
<path d="M52.9323 22.4878C52.9323 22.1986 53 21.1417 53 21.042C53 20.7428 52.9375 20.4786 52.9167 20.1545C52.8803 19.5413 52.8699 18.8982 52.7918 18.3996C52.7091 17.9393 52.589 17.4859 52.4326 17.0436C52.3858 16.9139 52.3493 16.7643 52.3077 16.6297C52.2122 16.2523 52.0615 15.8898 51.86 15.5528C51.64 15.2045 51.3947 14.8714 51.1262 14.5557C50.7875 14.1371 50.3553 13.7965 49.8613 13.5586C49.6261 13.4278 49.3808 13.3144 49.1274 13.2196C48.9298 13.1337 48.7217 13.0717 48.508 13.0352C48.3358 13.0099 48.1617 12.9982 47.9875 13.0002C47.6335 13.0002 47.3993 13.0002 47.2068 13.1997C47.0141 13.3991 47.009 13.8478 47.0141 14.2566C47.0141 14.5308 47.0141 14.815 47.0141 14.9994C47.0141 15.3634 47.0141 16.6397 47.0141 16.8043C46.9829 17.9011 47.0141 18.604 47.0141 19.1674C47.0141 19.3668 47.0141 19.9651 47.0141 20.0648C47.0454 20.6731 47.0141 20.9223 47.0141 21.5605C47.0141 21.8995 47.0141 22.388 47.0141 22.7271C47.0141 22.9215 47.0141 24.1928 47.0141 24.2228C47.0141 24.7213 47.0141 25.1401 47.0141 25.6586C47.0141 25.9079 47.0141 26.5111 47.0141 26.7155C46.9953 27.0111 46.9953 27.3074 47.0141 27.6029C47.0229 27.716 47.077 27.8214 47.1651 27.8971C47.3489 27.9839 47.5553 28.0169 47.7585 27.9918C48.0521 28.004 48.3462 27.994 48.6382 27.9619C48.9734 27.9063 49.2969 27.7985 49.5958 27.6429C49.7624 27.5681 50.1164 27.3587 50.309 27.244C50.6002 27.0731 50.8738 26.8762 51.1262 26.6557C51.4807 26.3352 51.7733 25.9571 51.9902 25.539C52.2724 25.0511 52.481 24.5273 52.6096 23.9835C52.7461 23.491 52.8538 22.9917 52.9323 22.4878ZM51.7456 20.683C51.7456 21.022 51.7456 21.2663 51.7456 21.8297C51.7242 22.378 51.6528 22.9235 51.5321 23.46C51.4663 23.8552 51.3474 24.2406 51.1782 24.6066C51.0167 24.9218 50.8099 25.2138 50.564 25.4741C50.2726 25.8449 49.8994 26.1497 49.4709 26.3665C49.1289 26.55 48.7678 26.6987 48.3935 26.8102C48.2842 26.8451 48.2685 26.8102 48.2685 26.6906C48.2685 26.3217 48.2998 25.7633 48.2685 25.4691C48.2373 25.175 48.2685 24.7612 48.2685 24.472C48.2685 24.0831 48.2685 23.6743 48.2685 23.2904C48.2685 22.8168 48.2685 22.4429 48.2685 21.9742C48.2685 21.6103 48.2685 21.1317 48.2685 20.7677C48.2685 20.314 48.2685 20.0997 48.2685 19.646C48.2685 19.4715 48.2685 18.8732 48.2373 18.7037C48.2373 18.1054 48.2373 18.0207 48.2373 17.5221C48.2373 17.1133 48.2373 16.8939 48.2373 16.4303C48.2373 16.2658 48.279 15.7822 48.279 15.6177C48.279 15.2388 48.3206 14.2267 48.3206 14.2267C48.8123 14.2966 49.2827 14.4666 49.6999 14.7253C50.1279 14.9848 50.4849 15.3387 50.741 15.7572C50.8195 15.8605 50.8874 15.9707 50.944 16.0863C51.0885 16.3482 51.2087 16.6218 51.3031 16.904C51.4228 17.2579 51.4853 17.6069 51.5686 17.9659C51.6235 18.1945 51.6652 18.4258 51.6935 18.6588C51.7507 19.0976 51.7507 19.3469 51.7924 19.8604C51.7143 19.9003 51.7456 20.3291 51.7456 20.683Z" fill="#4A4640"/>
<path d="M55.4561 26.6993C55.5787 26.7245 55.7049 26.7329 55.8304 26.7242C56.3787 26.7551 56.9288 26.7551 57.4772 26.7242C57.8467 26.6918 58.219 26.6918 58.5885 26.7242C58.7784 26.8737 58.6863 26.8737 58.6978 27.2524C58.6978 27.3172 58.6978 27.686 58.6978 27.7507C58.6978 27.8155 58.6978 28.0049 58.5712 27.9999C58.4445 27.9949 57.9954 27.965 57.8112 27.9749C57.3102 27.9749 56.5502 27.9749 56.2335 27.9749C56.1011 27.9749 55.5598 27.9749 55.4274 27.9749C54.9953 27.9946 54.5621 27.9846 54.1319 27.9451C54.0282 27.8304 54.1319 27.7856 54.0512 27.6461C54.0083 27.1717 54.0083 26.6953 54.0512 26.2209C54.0512 26.0715 54.0512 23.9437 54.011 23.4056C54.011 23.3558 54.011 23.3258 54.011 23.3059V23.2511C54.011 23.2062 54.011 23.1913 54.011 23.1215C54.057 22.6631 54.011 21.5668 54.011 21.4522C54.0512 21.1732 54.0743 19.8079 54.08 19.5487C54.0858 19.2896 54.08 17.6452 54.08 17.426C54.0445 16.9282 54.0445 16.429 54.08 15.9311C54.08 15.7916 54.0398 14.6555 54.0224 14.4362C53.9925 14.1578 53.9925 13.8775 54.0224 13.599C54.0224 13.4297 53.9764 13.1656 54.1319 13.1008C54.2873 13.036 54.4716 12.9862 54.8919 13.0111C54.9322 13.0111 55.9571 13.0111 55.9916 13.0111C56.481 12.9862 57.3448 13.0111 57.5866 13.0111C57.9378 13.0111 58.5194 13.0111 58.8649 13.0111C59.0491 13.0111 58.9972 13.3499 58.98 13.5393C58.98 13.6091 58.98 14.1771 58.9224 14.212C58.7664 14.2376 58.6062 14.2376 58.4503 14.212C58.1911 14.212 57.6038 14.212 57.4081 14.1871C56.8668 14.1644 56.3243 14.1728 55.7844 14.212C55.5598 14.212 55.5137 14.212 55.5368 14.4312C55.5598 14.6505 55.5368 14.7352 55.5368 14.9295C55.5368 15.0391 55.5368 15.3182 55.5713 15.4627C55.5713 15.7218 55.5713 16.2151 55.5713 16.5042C55.5713 16.7931 55.6289 17.7847 55.6519 18.1335C55.6519 18.3428 55.6519 18.7166 55.6519 18.9259C55.6519 18.9707 55.6519 19.0205 55.6519 19.0654C55.6519 19.2398 55.6519 19.2398 55.8822 19.2447C56.1125 19.2497 57.5059 19.2896 57.8226 19.2447C57.9039 19.2313 57.9875 19.2318 58.0685 19.2464C58.1495 19.2609 58.2264 19.2891 58.2948 19.3295C58.3697 19.4192 58.2948 19.6285 58.3466 20.0471C58.3466 20.1267 58.3466 20.4606 58.2775 20.4955C57.9783 20.5093 57.6785 20.5093 57.3793 20.4955C57.0683 20.4955 56.6941 20.4955 56.3831 20.4706C56.1696 20.4971 55.9541 20.5105 55.7383 20.5105C55.6174 20.5105 55.5598 20.5403 55.5713 20.645C55.5713 20.934 55.5368 21.3775 55.5713 21.6715C55.5713 21.7961 55.5713 24.5766 55.5713 24.8257C55.5713 25.2891 55.5713 25.7476 55.5713 26.211C55.4916 26.3644 55.4523 26.5312 55.4561 26.6993Z" fill="#4A4640"/>
<path d="M29.0246 8.3835C29.0246 8.30124 29.0246 7.70129 29.0246 7.61909C29.0246 7.53683 29.0447 6.70951 29.0246 6.59339C29.0185 6.45802 29.0185 6.32236 29.0246 6.18699C29.0246 6.00314 28.9923 5.0307 29.0246 4.95812C29.0246 4.7017 28.9964 3.96148 29.0004 3.84536C29.0044 3.72925 29.0004 3.60346 29.0004 3.47767C29.0004 3.35188 29.0004 3.2019 29.0407 3.13417C29.0687 3.0968 29.1051 3.06993 29.1455 3.05676C29.2898 3.00967 29.4397 2.99168 29.589 3.00354C29.7819 3.00223 29.9714 3.06413 30.1372 3.18254C30.3211 3.31971 30.4724 3.51131 30.5767 3.73892C30.7017 4.04705 30.7586 4.38859 30.742 4.73073C30.7271 5.01281 30.6595 5.28728 30.5444 5.53385C30.4819 5.71499 30.3902 5.87944 30.2743 6.01766C30.2441 6.05993 30.207 6.09448 30.1654 6.11926L30.2662 6.19667C30.3919 6.30894 30.5033 6.44258 30.5968 6.59339C30.748 6.83365 30.8526 7.11129 30.9032 7.40622C30.9656 7.702 30.9981 8.00574 31 8.31091C31.002 8.63676 30.9355 8.95793 30.8065 9.24468C30.7378 9.37621 30.6536 9.49517 30.5565 9.59784C30.486 9.67356 30.409 9.74004 30.3267 9.79621C30.2427 9.85472 30.1534 9.90179 30.0606 9.93649C29.9395 9.98264 29.8128 10.0039 29.6857 9.99941H29.1939C29.1657 9.99941 29.0205 9.99942 29.0125 9.85423C29.0125 9.82038 29.0125 9.47206 29.0125 9.42847C29.0125 9.38496 29.0246 8.44152 29.0246 8.3835ZM29.4841 9.39463C29.5124 9.39463 29.7583 9.39463 29.7865 9.39463C29.9599 9.35737 30.1192 9.25591 30.2421 9.10432C30.3717 8.92728 30.4383 8.69628 30.4275 8.46086C30.4275 8.34475 30.4275 8.17063 30.4275 8.05452C30.4225 7.79095 30.3788 7.53057 30.2985 7.2852C30.244 7.10269 30.1557 6.93731 30.0405 6.80142L29.8792 6.59822C29.8572 6.5718 29.8312 6.55047 29.8027 6.53534C29.7671 6.51629 29.7286 6.5064 29.6897 6.50631H29.4559C29.4559 6.58855 29.4559 6.68047 29.4559 6.75305C29.4559 7.03848 29.4317 7.29978 29.4559 7.58518C29.4801 7.87065 29.4559 8.06902 29.4559 8.33025C29.4761 8.67857 29.4559 9.0173 29.4841 9.39463ZM29.4841 5.9596C29.5468 5.94651 29.6078 5.92374 29.6656 5.89187C29.87 5.72908 30.0233 5.48897 30.101 5.2097C30.1669 5.03675 30.1999 4.84834 30.1977 4.65816C30.2057 4.43097 30.1713 4.20449 30.0969 3.99534C30.0089 3.83808 29.882 3.71794 29.7341 3.65184C29.6253 3.58894 29.46 3.65184 29.4559 3.79214C29.4519 3.93245 29.4559 4.18887 29.4559 4.33401C29.4559 4.47915 29.4559 4.71138 29.4559 4.87104C29.4559 5.1081 29.4559 5.4129 29.4559 5.73221C29.4801 5.79995 29.468 5.85801 29.4721 5.9596H29.4841Z" fill="#4A4640"/>
<path d="M31.5609 9.38808C31.6087 9.39523 31.6572 9.39523 31.7051 9.38808C31.9187 9.40494 32.1333 9.40494 32.3469 9.38808C32.4906 9.37108 32.6357 9.37108 32.7794 9.38808C32.8538 9.45618 32.8167 9.45618 32.8212 9.63609C32.8212 9.66525 32.8212 9.8403 32.8212 9.87432C32.8212 9.90833 32.8212 9.99586 32.7701 9.991C32.7189 9.98614 32.5469 9.991 32.4771 9.991C32.2818 9.991 31.9841 9.991 31.8632 9.991C31.7423 9.991 31.5981 9.991 31.5469 9.991C31.3797 10.003 31.2119 10.003 31.0447 9.991C31.0028 9.93748 31.0447 9.91319 31.0121 9.85002C30.996 9.62666 30.996 9.40237 31.0121 9.17901C31.0121 9.11099 31.0121 8.10937 31.0121 7.85657C31.0153 7.84056 31.0153 7.82399 31.0121 7.80798C31.0121 7.80798 31.0121 7.77876 31.0121 7.7496C31.0121 7.53082 31.0121 7.01543 31.0121 6.96198C31.0121 6.8307 31.0354 6.18892 31.04 6.06737C31.0447 5.94582 31.04 5.17276 31.04 5.07066C31.0275 4.84071 31.0275 4.6102 31.04 4.38026C31.04 4.31219 31.04 3.78223 31.04 3.68014C31.028 3.54916 31.028 3.41728 31.04 3.28631C31.04 3.20366 31.04 3.08211 31.0819 3.04807C31.1238 3.01404 31.2121 2.98973 31.3749 3.00432H31.8027C31.9934 3.00432 32.3283 3.00432 32.4259 3.00432C32.5236 3.00432 32.7887 3.00432 32.9236 3.00432C33.0584 3.00432 32.9747 3.16476 32.9701 3.25228C32.9654 3.33979 32.9701 3.55372 32.9701 3.56831C32.9701 3.5829 32.8398 3.56831 32.7841 3.56831C32.7283 3.56831 32.4539 3.56831 32.3795 3.56831C32.1689 3.55163 31.9574 3.55163 31.7469 3.56831C31.6585 3.56831 31.6446 3.56831 31.6493 3.67041C31.6539 3.77251 31.6493 3.81141 31.6493 3.90378C31.6493 3.99616 31.6493 4.08854 31.6493 4.15661C31.6493 4.22468 31.6493 4.51154 31.6493 4.64281C31.6493 4.77408 31.6493 5.2457 31.6818 5.40614C31.7144 5.56658 31.6818 5.68327 31.6818 5.78051C31.6371 5.79071 31.5955 5.81244 31.5609 5.84372C31.5609 5.92637 31.5609 5.92637 31.6539 5.93123C31.7469 5.9361 32.2864 5.93123 32.4073 5.93123C32.4718 5.91827 32.5386 5.93223 32.5934 5.97013C32.6213 6.01389 32.5934 6.11113 32.5934 6.30561C32.5934 6.3445 32.5934 6.50009 32.5655 6.51954C32.5376 6.53899 32.3051 6.51954 32.2167 6.51954C32.0881 6.52681 31.9592 6.52681 31.8307 6.51954C31.7471 6.52715 31.6631 6.52715 31.5795 6.51954C31.533 6.51954 31.5097 6.51954 31.5144 6.5876C31.5144 6.72374 31.5144 6.92797 31.5144 7.07381C31.5144 7.13211 31.5144 8.44005 31.5144 8.53237C31.5144 8.74629 31.5144 8.96508 31.5144 9.17901C31.5207 9.25061 31.5364 9.32092 31.5609 9.38808Z" fill="#4A4640"/>
<path d="M33.5609 9.38815C33.6086 9.39522 33.657 9.39522 33.7047 9.38815C33.9177 9.40494 34.1316 9.40494 34.3446 9.38815C34.4878 9.37107 34.6326 9.37107 34.7759 9.38815C34.85 9.45617 34.8129 9.45617 34.8175 9.63609C34.8175 9.66524 34.8175 9.8403 34.8175 9.87431C34.8175 9.9084 34.8175 9.99586 34.7665 9.991C34.7156 9.98614 34.544 9.991 34.4744 9.991C34.2797 9.991 33.9829 9.991 33.8577 9.991C33.8067 9.991 33.598 9.991 33.5471 9.991C33.3803 10.003 33.213 10.003 33.0463 9.991C33.0046 9.93755 33.0463 9.91326 33.0138 9.85002C32.9954 9.6268 32.9954 9.4023 33.0138 9.17908C33.0138 9.11098 33.0138 8.10943 33.0138 7.85663C33.0122 7.84041 33.0122 7.82412 33.0138 7.80797C33.0138 7.80797 33.0138 7.77882 33.0138 7.74967C33.0138 7.53088 33.0138 7.01549 33.0138 6.96197C33.0138 6.83071 33.037 6.18893 33.0417 6.06738C33.0463 5.94583 33.0417 5.17277 33.0417 5.07067C33.0268 4.8408 33.0268 4.61014 33.0417 4.38026C33.0417 4.3122 33.0417 3.78224 33.0417 3.68014C33.0295 3.54917 33.0295 3.41728 33.0417 3.28631C33.0417 3.20366 33.0417 3.08211 33.0834 3.04808C33.1251 3.01404 33.2179 2.98973 33.3802 3.00432H33.8067C33.9968 3.00432 34.3307 3.00432 34.4234 3.00432C34.5162 3.00432 34.7897 3.00432 34.9242 3.00432C35.0587 3.00432 34.9752 3.16476 34.9659 3.25228C34.9566 3.3398 34.9659 3.55372 34.9659 3.56831C34.9659 3.5829 34.8361 3.56831 34.7804 3.56831C34.7248 3.56831 34.4512 3.56831 34.3724 3.56831C34.1641 3.55175 33.9548 3.55175 33.7464 3.56831C33.6583 3.56831 33.6398 3.56831 33.6491 3.67041C33.6583 3.77251 33.6491 3.81141 33.6491 3.90379C33.6491 3.99617 33.6491 4.08854 33.6491 4.15661C33.6491 4.22468 33.6491 4.51154 33.6491 4.64281C33.6491 4.77409 33.6491 5.2457 33.6815 5.40614C33.714 5.56659 33.6815 5.68328 33.6815 5.78052C33.6815 5.78052 33.6815 5.82428 33.6815 5.84373C33.6815 5.86318 33.6815 5.92639 33.7696 5.93124C33.8577 5.93611 34.4048 5.93124 34.5254 5.93124C34.5565 5.9244 34.5886 5.92431 34.6197 5.93101C34.6508 5.9377 34.6803 5.95101 34.7063 5.97014C34.7387 6.0139 34.7063 6.11114 34.7295 6.30562C34.7295 6.34451 34.7295 6.5001 34.7016 6.51955C34.6738 6.53899 34.442 6.51955 34.3539 6.51955C34.2241 6.52682 34.0941 6.52682 33.9644 6.51955C33.8826 6.52715 33.8004 6.52715 33.7186 6.51955C33.6676 6.51955 33.6491 6.51955 33.6491 6.58762C33.6491 6.72375 33.6491 6.92796 33.6491 7.07379C33.6491 7.13217 33.6491 8.44004 33.6491 8.53243C33.6491 8.74636 33.6491 8.96515 33.6491 9.17908C33.6056 9.24117 33.5754 9.31255 33.5609 9.38815Z" fill="#4A4640"/>
<path d="M43.4997 3.01927H43.6273C43.8122 3.0283 43.9908 3.09518 44.142 3.21197C44.2867 3.30927 44.4123 3.43698 44.5116 3.58774C44.57 3.68108 44.6215 3.77935 44.6656 3.88162C44.7175 4.00233 44.763 4.12618 44.802 4.25258C44.802 4.25258 44.8372 4.38265 44.8416 4.38746V4.45491C44.8812 4.63316 44.9384 5.07156 44.956 5.25463C44.9912 5.62558 44.9956 5.93872 45 6.12661V6.27113C45 6.37231 45 6.91187 45 6.98415V7.0323C45 7.16724 45 7.51409 45 7.76458C45 7.85612 44.934 8.31858 44.9251 8.35717V8.39087C44.8781 8.64717 44.8027 8.89631 44.7008 9.13278C44.5784 9.39927 44.3969 9.62789 44.1729 9.79759C43.9783 9.92871 43.7546 9.99873 43.5262 9.99994C43.4045 10.0011 43.2832 9.98493 43.1654 9.95179C42.9891 9.90216 42.8253 9.80998 42.6859 9.68198C42.5711 9.57797 42.4742 9.45237 42.3999 9.31106C42.289 9.08202 42.1991 8.84158 42.1315 8.59322V8.5113C42.1315 8.45353 42.1051 8.4005 42.0963 8.35717C42.0655 8.19334 42.0127 7.75495 42.0039 7.62489C41.9951 7.49483 42.0039 6.84443 42.0039 6.74325C42.0039 6.64209 42.0039 6.48311 42.0039 6.37231C42.0039 6.2615 42.0039 6.16997 42.0039 6.03026C42.0039 5.89055 42.0039 5.60631 42.0039 5.41361C42.0039 5.37506 42.0039 5.31726 42.0039 5.24499C42.0039 5.06674 42.0391 4.84513 42.0567 4.76323C42.0963 4.5079 42.1403 4.28148 42.1711 4.16104C42.2342 3.9011 42.3534 3.66155 42.5187 3.46249C42.6816 3.23761 42.9125 3.08385 43.1698 3.02891C43.2437 3.01243 43.3187 3.00276 43.3942 3L43.4997 3.01927ZM43.8649 9.2821C44.0261 9.19098 44.1512 9.03848 44.2169 8.85334C44.2982 8.6706 44.3602 8.47824 44.4017 8.28007V8.256C44.4017 8.18853 44.4589 7.81761 44.4632 7.77421C44.4632 7.54779 44.4632 7.19613 44.4632 7.06125V7.00822C44.4632 6.91187 44.4632 6.44457 44.4632 6.38194C44.4632 6.31931 44.4632 6.27595 44.4632 6.1796C44.464 5.90601 44.4507 5.63259 44.4236 5.36061C44.4029 5.12283 44.3706 4.88643 44.3269 4.65243V4.60907C44.2688 4.37616 44.183 4.15263 44.0717 3.94425C44.0162 3.86236 43.9477 3.79218 43.8693 3.73709C43.7913 3.68139 43.7023 3.64672 43.6097 3.63592C43.5657 3.63592 43.5217 3.63592 43.4733 3.63592C43.4192 3.6309 43.3647 3.6309 43.3106 3.63592C43.156 3.65969 43.0159 3.74767 42.919 3.88162C42.8197 4.0058 42.7462 4.15208 42.7035 4.31038C42.7035 4.36819 42.655 4.52717 42.6022 4.85958C42.6022 4.94149 42.567 5.17273 42.5539 5.34134C42.5539 5.40879 42.5539 5.47141 42.5539 5.51478C42.5452 5.69933 42.5452 5.88424 42.5539 6.06879C42.5539 6.21814 42.5539 6.32895 42.5539 6.43011C42.5539 6.53129 42.5539 6.671 42.5539 6.77216C42.5539 6.87334 42.5539 7.48032 42.5539 7.5863C42.5539 7.69229 42.6066 8.09698 42.633 8.24155C42.6389 8.28871 42.6477 8.33536 42.6594 8.38124C42.6594 8.42457 42.6594 8.46797 42.6902 8.50167C42.7428 8.69319 42.8121 8.87868 42.897 9.05568C42.938 9.1262 42.9868 9.19091 43.0422 9.2484C43.1214 9.32529 43.2165 9.37987 43.3194 9.40734C43.3998 9.41726 43.4809 9.41726 43.5614 9.40734C43.6689 9.39595 43.7726 9.35807 43.8649 9.29654V9.2821Z" fill="#4A4640"/>
<path d="M47.5107 3.00482H47.6373C47.8225 3.01212 48.0017 3.07926 48.1527 3.19793C48.2938 3.29529 48.4168 3.42144 48.5153 3.56965C48.5738 3.66439 48.625 3.76453 48.6681 3.86896C48.7233 3.9881 48.7686 4.11252 48.8035 4.24069C48.8035 4.24069 48.8428 4.3662 48.8428 4.37586C48.8439 4.39837 48.8439 4.42094 48.8428 4.44345C48.8821 4.61724 48.9389 5.06137 48.9564 5.24482C48.9913 5.61171 48.9957 5.93034 49 6.11862C48.997 6.16522 48.997 6.21201 49 6.25861C49 6.36482 49 6.90068 49 6.97313V7.02619C49 7.16135 49 7.50899 48.9738 7.76C48.9738 7.84691 48.9083 8.31033 48.8996 8.35375V8.38759C48.8521 8.64421 48.7774 8.8938 48.6768 9.13104C48.5555 9.39816 48.3752 9.62732 48.1527 9.79723C47.9581 9.92494 47.7369 9.99482 47.5107 10C47.3902 9.99638 47.2703 9.98021 47.1525 9.95169C46.9781 9.90167 46.8167 9.80745 46.6809 9.67655C46.568 9.57304 46.4719 9.44896 46.397 9.30962C46.2866 9.08096 46.1987 8.83981 46.1349 8.59036V8.50827C46.1189 8.45613 46.1057 8.40292 46.0956 8.34893C46.0694 8.18483 46.0126 7.75035 46.0039 7.61519C45.9952 7.47997 46.0039 6.83309 46.0039 6.73654C46.0039 6.63999 46.0039 6.47585 46.0039 6.36482C46.0039 6.25378 46.0039 6.16206 46.0039 6.02206C46.002 5.8157 46.0108 5.60939 46.0301 5.40413C46.0301 5.36551 46.0301 5.30276 46.0301 5.23516C46.0301 5.05655 46.0694 4.82965 46.0869 4.72345C46.1262 4.47241 46.1655 4.24069 46.2004 4.12483C46.2596 3.8793 46.3703 3.65268 46.5236 3.46345C46.6884 3.23713 46.9206 3.08309 47.1788 3.02897C47.2521 3.01245 47.3266 3.00276 47.4015 3L47.5107 3.00482ZM47.8776 9.28067C48.0357 9.18809 48.1582 9.03548 48.2226 8.85102C48.3039 8.66478 48.3655 8.46876 48.406 8.26691V8.2379C48.406 8.17035 48.4628 7.80342 48.4672 7.75517C48.4672 7.52829 48.4672 7.171 48.4672 7.04067V6.98277C48.4672 6.89103 48.4672 6.42275 48.4672 6.35999C48.4672 6.29723 48.4672 6.25378 48.4672 6.15241C48.4672 5.97378 48.4672 5.66965 48.4279 5.33172C48.4062 5.09491 48.3727 4.8596 48.3274 4.62689C48.3274 4.62689 48.3274 4.5931 48.3274 4.57862C48.2687 4.34949 48.1851 4.12905 48.0785 3.92207C48.0234 3.84002 47.9554 3.76968 47.8776 3.71448C47.7992 3.66161 47.7112 3.62863 47.6199 3.61793H47.3273C47.1742 3.64667 47.0351 3.7338 46.9342 3.86414C46.836 3.98998 46.7644 4.13839 46.7245 4.29862C46.6797 4.47795 46.6447 4.66013 46.6197 4.84413C46.6197 4.93103 46.5848 5.16276 46.5717 5.32689C46.5717 5.39931 46.5717 5.46207 46.5717 5.50068C46.5717 5.66965 46.5717 5.9062 46.5717 6.06068C46.5717 6.21517 46.5717 6.32137 46.5717 6.42275C46.5717 6.52413 46.5717 6.66413 46.5717 6.76551C46.5717 6.86688 46.5717 7.47515 46.5717 7.58135C46.5717 7.68756 46.6241 8.09309 46.6503 8.2379C46.6503 8.2379 46.6503 8.3441 46.6765 8.37312C46.7027 8.40207 46.6765 8.46478 46.707 8.4938C46.7607 8.68734 46.831 8.87486 46.9167 9.05378C46.9547 9.12523 47.0017 9.19028 47.0564 9.2469C47.1362 9.3221 47.2303 9.37659 47.3317 9.40618C47.4114 9.41597 47.492 9.41597 47.5719 9.40618C47.6796 9.39298 47.7837 9.35524 47.8776 9.29514V9.28067Z" fill="#4A4640"/>
<path d="M40.5689 6.4617C40.5207 6.4617 40.5076 6.4617 40.5076 6.49536C40.5076 6.61554 40.5076 6.72612 40.5076 6.8463C40.5076 7.08668 40.5076 7.24049 40.5076 7.48092C40.5076 7.72127 40.5076 7.81743 40.5076 8.16355C40.5076 8.27412 40.5339 8.88469 40.5076 9.02409C40.4813 9.16349 40.5076 9.26445 40.5076 9.37021C40.5076 9.47598 40.5076 9.61544 40.5076 9.6827C40.5076 9.75003 40.5339 9.83658 40.5076 9.93754C40.4813 10.0385 40.4682 9.93754 40.4288 9.98078C40.3894 10.024 40.0482 9.98078 40.0263 9.98078C40.0044 9.98078 40.0263 9.6731 40.0263 9.59616C40.0263 9.51929 40.0263 9.28854 40.0263 9.00968C40.0263 8.96644 40.0263 8.86067 40.0263 8.66836C40.0263 8.56259 40.0263 8.36067 40.0263 8.18757C40.0263 8.01455 40.0263 7.96644 40.0263 7.70686C40.0263 7.64914 40.0263 7.22608 40.0263 7.14921C40.0263 6.95689 40.0263 6.76457 40.0263 6.57227C40.0328 6.46984 40.0328 6.36703 40.0263 6.26459V5.69731C40.0196 5.57243 40.0196 5.44722 40.0263 5.32233C40.0327 5.20064 40.0327 5.07865 40.0263 4.95696C40.0329 4.88181 40.0329 4.80615 40.0263 4.73101C40.0263 4.50025 40 4.00027 40 3.98585C40.0263 3.832 40 3.67336 40.0351 3.5051C40.0471 3.39511 40.0879 3.29128 40.1523 3.20603C40.2166 3.12078 40.3021 3.0577 40.3982 3.02435C40.5323 2.99188 40.6711 2.99188 40.8052 3.02435C40.9785 3.06398 41.1397 3.1517 41.2734 3.27915C41.3434 3.35125 41.3959 3.43298 41.4659 3.5051C41.5375 3.6006 41.5923 3.7098 41.6278 3.8272C41.6541 3.8945 41.6672 3.96181 41.6891 4.03392C41.7332 4.18955 41.7553 4.35168 41.7547 4.51467C41.759 4.71173 41.7339 4.90825 41.6804 5.09638C41.635 5.29159 41.5626 5.47804 41.4659 5.64924L41.4003 5.75981C41.3171 5.86076 41.3127 5.92326 41.2252 6.01461C41.1377 6.10595 41.024 6.22614 41.0371 6.24537C41.0808 6.48094 41.1902 6.63958 41.2427 6.87995C41.2952 7.12031 41.3915 7.38956 41.4528 7.64914C41.5141 7.90878 41.5578 8.00974 41.6366 8.32224C41.6937 8.51653 41.7419 8.71386 41.781 8.91352C41.8379 9.14427 41.8772 9.28854 41.9428 9.51448C41.9831 9.62103 42.0025 9.73569 41.9997 9.851C41.9997 9.95676 41.8422 9.93274 41.7285 9.93274C41.6605 9.9468 41.5907 9.9468 41.5228 9.93274C41.4389 9.75519 41.3827 9.56344 41.3565 9.36541C41.3565 9.36541 41.1552 8.49046 41.0852 8.23569C41.0152 7.98085 40.8796 7.44241 40.8314 7.24049C40.7745 7.01624 40.7043 6.7962 40.6214 6.58189C40.5951 6.55304 40.5951 6.5242 40.5689 6.4617ZM40.5076 5.50021C40.5012 5.62029 40.5012 5.74068 40.5076 5.86076C40.5076 5.91365 40.5295 5.92807 40.5732 5.90884C40.6477 5.8753 40.7117 5.81846 40.7571 5.74539C40.8696 5.58538 40.9691 5.41487 41.0546 5.23579C41.1348 5.08822 41.1884 4.92496 41.2121 4.75504C41.2409 4.59635 41.2409 4.43299 41.2121 4.2743C41.1908 4.15751 41.1459 4.04745 41.0808 3.95219C41.0318 3.87861 40.9728 3.81375 40.9058 3.7599C40.8405 3.70945 40.7625 3.68257 40.6827 3.68298C40.652 3.68298 40.5426 3.68298 40.5251 3.71182C40.5144 3.78022 40.5144 3.85013 40.5251 3.91854C40.5251 4.02911 40.5251 4.17333 40.5251 4.28872C40.5476 4.60874 40.5476 4.93019 40.5251 5.25021C40.5151 5.33957 40.5093 5.42943 40.5076 5.51944V5.50021Z" fill="#4A4640"/>
<path d="M38.1479 4.62874C38.1479 4.94642 38.1124 7.56122 38.116 7.56122C38.1195 7.56122 38.116 7.95705 38.116 7.9717C38.116 7.98643 38.116 8.27474 38.116 8.68041V9.51618C38.116 9.5406 38.116 9.66278 38.116 9.83387C38.1178 9.87617 38.1178 9.91862 38.116 9.96093C38.1195 9.9735 38.1195 9.98743 38.116 10C38.116 10 38.0768 10 38.027 10H37.8883C37.7353 10 37.7211 10 37.7211 10V9.64812C37.7211 9.48192 37.7211 9.22291 37.7211 9.06648C37.7211 8.91011 37.7211 8.65599 37.7211 8.48978C37.7211 8.48978 37.746 8.03527 37.7495 7.80557C37.7495 7.76154 37.7495 7.7127 37.7495 7.66386C37.7495 7.43897 37.7495 7.21904 37.7495 6.99422C37.7495 6.76943 37.7495 6.65213 37.7495 6.46152C37.7495 6.27091 37.7495 6.11452 37.7495 5.94346C37.7495 5.87992 37.7495 5.81638 37.7495 5.75774C37.7495 5.56224 37.7495 5.31298 37.7495 5.12237C37.7495 5.04906 37.7495 4.97575 37.7495 4.90244C37.7495 4.7216 37.7495 4.54077 37.7495 4.35994C37.7495 4.32572 37.7495 4.17421 37.7495 4.08624C37.7584 3.92356 37.7584 3.76018 37.7495 3.5975C37.6859 3.58352 37.6211 3.58352 37.5574 3.5975C37.4507 3.5975 37.4045 3.5975 37.2479 3.5975C37.1689 3.61437 37.0885 3.61437 37.0096 3.5975C37.0035 3.4983 37.0035 3.39857 37.0096 3.29937C36.9968 3.20405 36.9968 3.10633 37.0096 3.01101C37.0731 2.99633 37.1381 2.99633 37.2017 3.01101C37.3902 3.01101 37.4827 3.01101 37.6499 3.01101C37.8171 3.01101 37.9701 3.01101 38.1479 3.01101C38.3258 3.01101 38.4539 3.01101 38.5891 3.01101C38.6317 3.01101 38.7563 3.01101 38.9235 3.01101C39.0266 3.01101 38.9733 3.06966 38.9875 3.19184C39.0042 3.31788 39.0042 3.44702 38.9875 3.57306C38.9224 3.60407 38.8535 3.61735 38.7847 3.61216C38.6567 3.61216 38.6175 3.61216 38.4076 3.61216H38.2084C38.2084 3.71968 38.2084 3.96894 38.2084 4.20843C38.1408 4.17421 38.1479 4.62874 38.1479 4.62874Z" fill="#4A4640"/>
<path d="M50.1479 4.63996C50.1479 4.95697 50.1124 7.56625 50.116 7.56625C50.1195 7.56625 50.116 7.96133 50.116 7.97595C50.116 7.99057 50.116 8.27835 50.116 8.68317V9.51712C50.116 9.54149 50.116 9.66348 50.116 9.83414C50.1178 9.87636 50.1178 9.91872 50.116 9.96094C50.1195 9.97348 50.1195 9.98746 50.116 10C50.116 10 50.0768 10 50.027 10H49.8883C49.7353 10 49.7211 10 49.7211 10V9.05381C49.7211 8.88795 49.7211 8.64411 49.7211 8.47832C49.7211 8.47832 49.746 8.02469 49.7495 7.79547C49.7495 7.7516 49.7495 7.70286 49.7495 7.65405C49.7495 7.42971 49.7495 7.21024 49.7495 6.98589C49.7495 6.76153 49.7495 6.64448 49.7495 6.45427C49.7495 6.26406 49.7495 6.10799 49.7495 5.93729C49.7495 5.87388 49.7495 5.81048 49.7495 5.75196C49.7495 5.55687 49.7495 5.30813 49.7495 5.11792C49.7495 5.04477 49.7495 4.97161 49.7495 4.89845C49.7495 4.71799 49.7495 4.53754 49.7495 4.35708C49.7495 4.32294 49.7495 4.17175 49.7495 4.08396C49.7584 3.92162 49.7584 3.75858 49.7495 3.59624C49.6859 3.5823 49.6211 3.5823 49.5574 3.59624C49.4507 3.59624 49.4045 3.59624 49.2479 3.59624C49.1689 3.61308 49.0886 3.61308 49.0096 3.59624C49.0035 3.49725 49.0035 3.39773 49.0096 3.29873C48.9968 3.20362 48.9968 3.1061 49.0096 3.01098C49.0731 2.99634 49.1381 2.99634 49.2017 3.01098C49.3902 3.01098 49.4827 3.01098 49.6499 3.01098C49.8171 3.01098 49.9701 3.01098 50.1479 3.01098C50.3258 3.01098 50.4539 3.01098 50.5891 3.01098C50.6317 3.01098 50.7598 3.01098 50.9235 3.01098C51.0266 3.01098 50.9733 3.06951 50.9875 3.19143C51.0042 3.31721 51.0042 3.44608 50.9875 3.57186C50.9224 3.60281 50.8535 3.61606 50.7847 3.61087C50.6567 3.61087 50.6175 3.61087 50.4076 3.61087H50.2084C50.2084 3.71817 50.2084 3.96691 50.2084 4.20589C50.1444 4.18638 50.1479 4.63996 50.1479 4.63996Z" fill="#4A4640"/>
</svg>
