<svg width="43" height="43" viewBox="0 0 43 43" fill="none" xmlns="http://www.w3.org/2000/svg">
<path d="M20.2939 15.2929C20.6844 14.9024 21.3176 14.9024 21.7081 15.2929L28.072 21.6569C28.4626 22.0474 28.4626 22.6805 28.072 23.0711C27.6815 23.4616 27.0484 23.4616 26.6578 23.0711L21.001 17.4142L15.3441 23.0711C14.9536 23.4616 14.3204 23.4616 13.9299 23.0711C13.5394 22.6805 13.5394 22.0474 13.9299 21.6569L20.2939 15.2929ZM20.001 39L20.001 16L22.001 16L22.001 39L20.001 39Z" fill="#2B75B5"/>
<mask id="path-2-inside-1_212_232" fill="white">
<path d="M31.3122 31.7466C33.4338 29.7109 34.9041 27.0918 35.5372 24.2205C36.1702 21.3492 35.9376 18.3546 34.8688 15.6155C33.8 12.8764 31.9429 10.5157 29.5324 8.83201C27.1219 7.14832 24.2663 6.21724 21.3266 6.1565C18.387 6.09576 15.4954 6.90809 13.0174 8.49077C10.5394 10.0734 8.58641 12.3554 7.40534 15.048C6.22427 17.7407 5.86819 20.723 6.38211 23.6181C6.89603 26.5131 8.25689 29.1907 10.2926 31.3123L11.9895 29.6841C10.2758 27.8981 9.13022 25.6441 8.69759 23.207C8.26496 20.77 8.56472 18.2593 9.55896 15.9927C10.5532 13.726 12.1973 11.805 14.2832 10.4727C16.3692 9.14038 18.8034 8.45655 21.2781 8.50768C23.7527 8.55881 26.1566 9.34261 28.1858 10.76C30.2149 12.1773 31.7782 14.1645 32.678 16.4704C33.5778 18.7762 33.7736 21.297 33.2406 23.7141C32.7077 26.1312 31.47 28.336 29.684 30.0497L31.3122 31.7466Z"/>
</mask>
<path d="M31.3122 31.7466C33.4338 29.7109 34.9041 27.0918 35.5372 24.2205C36.1702 21.3492 35.9376 18.3546 34.8688 15.6155C33.8 12.8764 31.9429 10.5157 29.5324 8.83201C27.1219 7.14832 24.2663 6.21724 21.3266 6.1565C18.387 6.09576 15.4954 6.90809 13.0174 8.49077C10.5394 10.0734 8.58641 12.3554 7.40534 15.048C6.22427 17.7407 5.86819 20.723 6.38211 23.6181C6.89603 26.5131 8.25689 29.1907 10.2926 31.3123L11.9895 29.6841C10.2758 27.8981 9.13022 25.6441 8.69759 23.207C8.26496 20.77 8.56472 18.2593 9.55896 15.9927C10.5532 13.726 12.1973 11.805 14.2832 10.4727C16.3692 9.14038 18.8034 8.45655 21.2781 8.50768C23.7527 8.55881 26.1566 9.34261 28.1858 10.76C30.2149 12.1773 31.7782 14.1645 32.678 16.4704C33.5778 18.7762 33.7736 21.297 33.2406 23.7141C32.7077 26.1312 31.47 28.336 29.684 30.0497L31.3122 31.7466Z" stroke="#2B75B5" stroke-width="4" stroke-linecap="round" stroke-linejoin="round" mask="url(#path-2-inside-1_212_232)"/>
</svg>
