<svg width="27" height="43" viewBox="0 0 27 43" fill="none" xmlns="http://www.w3.org/2000/svg">
<path d="M27 29.5625C27 33.1263 25.5777 36.5442 23.0459 39.0642C20.5142 41.5843 17.0804 43 13.5 43C9.91958 43 6.4858 41.5843 3.95406 39.0642C1.42232 36.5442 2.16445e-07 33.1263 2.9457e-07 29.5625L6.48053e-07 13.4375C7.26178e-07 9.87364 1.42232 6.45576 3.95406 3.93574C6.4858 1.41573 9.91958 -5.95494e-06 13.5 -4.70665e-06C17.0804 -3.45837e-06 20.5142 1.41573 23.0459 3.93575C25.5777 6.45577 27 9.87365 27 13.4375L27 29.5625ZM12.15 33.5937C12.15 33.9501 12.2922 34.2919 12.5454 34.5439C12.7986 34.7959 13.142 34.9375 13.5 34.9375C13.858 34.9375 14.2014 34.7959 14.4546 34.5439C14.7078 34.2919 14.85 33.9501 14.85 33.5937L14.85 28.2187C14.85 27.8624 14.7078 27.5206 14.4546 27.2686C14.2014 27.0166 13.858 26.875 13.5 26.875C13.142 26.875 12.7986 27.0166 12.5454 27.2686C12.2922 27.5206 12.15 27.8624 12.15 28.2187L12.15 33.5937Z" fill="white"/>
</svg>
