<svg width="23" height="20" viewBox="0 0 23 20" fill="none" xmlns="http://www.w3.org/2000/svg">
<path fill-rule="evenodd" clip-rule="evenodd" d="M17.4976 19.8459C18.8937 20.4255 19.3865 19.1834 19.3865 19.1834L23 0.718566C23 -0.523484 21.2753 0.221689 21.2753 0.221689L0.908237 8.33644C0.908237 8.33644 -0.0772644 8.6676 0.00486194 9.33005C0.0869882 9.90965 0.826111 10.2408 0.826111 10.2408L6 11.9797C6 11.9797 7.56037 17.1135 7.88896 18.1071C8.13522 19.1007 8.46381 19.1007 8.46381 19.1007C8.71008 19.1834 9.03867 19.0179 9.03867 19.0179L12.4058 15.9542L17.4976 19.8459ZM18.4009 3.94784C18.4009 3.94784 19.1401 3.53382 19.0579 3.94784C19.0579 3.94784 19.1401 4.03069 18.8115 4.44471C18.4831 4.77587 10.3526 12.1453 9.28508 13.1389C9.20289 13.2218 9.12071 13.3045 9.12071 13.3874L8.79226 16.1198C8.71022 16.3682 8.38163 16.451 8.29959 16.2026L6.98551 11.7313C6.90339 11.5657 6.98553 11.3173 7.14978 11.2344L18.4009 3.94784Z" fill="white"/>
</svg>
